<mxfile host="65bd71144e">
    <diagram id="3WLA4bAid_R5fJ9ug3jl" name="Debounce State Machine">
        <mxGraphModel dx="1413" dy="926" grid="1" gridSize="10" guides="1" tooltips="1" connect="1" arrows="1" fold="1" page="1" pageScale="1" pageWidth="850" pageHeight="1400" math="0" shadow="0">
            <root>
                <mxCell id="0"/>
                <mxCell id="1" parent="0"/>
                <mxCell id="5" value="in==ON and&lt;br&gt;&lt;span style=&quot;font-size: 12px; background-color: rgb(42, 37, 47);&quot;&gt;clock_coutner==CLOCK_LIMIT&lt;/span&gt;&lt;br&gt;-------------------------------------------&lt;br&gt;out&amp;lt;=ON&lt;br&gt;clock_counter&amp;lt;=CLOCK_START" style="edgeStyle=orthogonalEdgeStyle;html=1;exitX=1;exitY=0;exitDx=0;exitDy=0;entryX=0;entryY=0;entryDx=0;entryDy=0;curved=1;" edge="1" parent="1" source="2" target="3">
                    <mxGeometry y="40" relative="1" as="geometry">
                        <Array as="points">
                            <mxPoint x="328" y="205"/>
                            <mxPoint x="512" y="205"/>
                        </Array>
                        <mxPoint as="offset"/>
                    </mxGeometry>
                </mxCell>
                <mxCell id="2" value="OFF" style="ellipse;whiteSpace=wrap;html=1;aspect=fixed;" vertex="1" parent="1">
                    <mxGeometry x="260" y="235" width="80" height="80" as="geometry"/>
                </mxCell>
                <mxCell id="6" value="(in==OFF&amp;nbsp;and&lt;br&gt;&lt;span style=&quot;font-size: 12px; background-color: rgb(42, 37, 47);&quot;&gt;clock_coutner==CLOCK_LIMIT)&lt;/span&gt;&lt;br&gt;or reset==ON&lt;br&gt;--------------------------------------------&lt;br&gt;out&amp;lt;=OFF&lt;br&gt;clock_counter&amp;lt;=CLOCK_START" style="edgeStyle=orthogonalEdgeStyle;html=1;exitX=0;exitY=1;exitDx=0;exitDy=0;entryX=1;entryY=1;entryDx=0;entryDy=0;curved=1;" edge="1" parent="1" source="3" target="2">
                    <mxGeometry y="50" relative="1" as="geometry">
                        <Array as="points">
                            <mxPoint x="512" y="345"/>
                            <mxPoint x="328" y="345"/>
                        </Array>
                        <mxPoint as="offset"/>
                    </mxGeometry>
                </mxCell>
                <mxCell id="3" value="ON" style="ellipse;whiteSpace=wrap;html=1;aspect=fixed;" vertex="1" parent="1">
                    <mxGeometry x="500" y="235" width="80" height="80" as="geometry"/>
                </mxCell>
                <mxCell id="7" value="(in==OFF and&lt;br&gt;&lt;span style=&quot;font-size: 12px; background-color: rgb(42, 37, 47);&quot;&gt;clock_coutner==CLOCK_LIMIT)&lt;/span&gt;&lt;br&gt;&amp;nbsp;or reset==ON" style="edgeStyle=orthogonalEdgeStyle;html=1;exitX=0;exitY=1;exitDx=0;exitDy=0;curved=1;entryX=0;entryY=0;entryDx=0;entryDy=0;" edge="1" parent="1" source="2" target="2">
                    <mxGeometry relative="1" as="geometry">
                        <mxPoint x="240" y="235" as="targetPoint"/>
                        <Array as="points">
                            <mxPoint x="272" y="345"/>
                            <mxPoint x="140" y="345"/>
                            <mxPoint x="140" y="205"/>
                            <mxPoint x="272" y="205"/>
                        </Array>
                    </mxGeometry>
                </mxCell>
                <mxCell id="10" value="in==ON and&lt;br&gt;&lt;span style=&quot;font-size: 12px; background-color: rgb(42, 37, 47);&quot;&gt;clock_coutner==CLOCK_LIMIT&lt;/span&gt;" style="edgeStyle=orthogonalEdgeStyle;curved=1;html=1;exitX=1;exitY=0;exitDx=0;exitDy=0;elbow=vertical;entryX=1;entryY=1;entryDx=0;entryDy=0;" edge="1" parent="1" source="3" target="3">
                    <mxGeometry x="-0.0003" relative="1" as="geometry">
                        <mxPoint x="600" y="335" as="targetPoint"/>
                        <Array as="points">
                            <mxPoint x="568" y="205"/>
                            <mxPoint x="700" y="205"/>
                            <mxPoint x="700" y="345"/>
                            <mxPoint x="568" y="345"/>
                        </Array>
                        <mxPoint as="offset"/>
                    </mxGeometry>
                </mxCell>
                <mxCell id="12" value="Debounce Module State Machine" style="text;strokeColor=none;fillColor=none;html=1;fontSize=24;fontStyle=1;verticalAlign=middle;align=center;" vertex="1" parent="1">
                    <mxGeometry x="375" y="40" width="100" height="40" as="geometry"/>
                </mxCell>
            </root>
        </mxGraphModel>
    </diagram>
</mxfile>